<svg xmlns="http://www.w3.org/2000/svg" width="296.209" height="54.054" viewBox="0 0 296.209 54.054">
  <g id="Groupe_12" data-name="Groupe 12" transform="translate(-30.145 -241.549)">
    <path id="Rectangle_6" data-name="Rectangle 6" d="M25.609,0H270.1a24.4,24.4,0,0,1,5.361.6,20.729,20.729,0,0,1,4.656,1.629,13.077,13.077,0,0,1,3.476,2.434,6.577,6.577,0,0,1,1.8,3.01L293.554,41.2a5.156,5.156,0,0,1-.308,3.415,7.19,7.19,0,0,1-2.441,2.818,13.286,13.286,0,0,1-4.192,1.915,20.9,20.9,0,0,1-5.533.705H14.629A20.9,20.9,0,0,1,9.1,49.349,13.286,13.286,0,0,1,4.9,47.434a7.191,7.191,0,0,1-2.441-2.818A5.156,5.156,0,0,1,2.155,41.2L10.319,7.669a6.577,6.577,0,0,1,1.8-3.01,13.077,13.077,0,0,1,3.476-2.434A20.73,20.73,0,0,1,20.248.6,24.4,24.4,0,0,1,25.609,0Z" transform="translate(30.145 245.549)" fill="#ff437f"/>
    <path id="Rectangle_5" data-name="Rectangle 5" d="M25.609,0H270.1a24.4,24.4,0,0,1,5.361.6,20.729,20.729,0,0,1,4.656,1.629,13.077,13.077,0,0,1,3.476,2.434,6.577,6.577,0,0,1,1.8,3.01L293.554,41.2a5.156,5.156,0,0,1-.308,3.415,7.19,7.19,0,0,1-2.441,2.818,13.286,13.286,0,0,1-4.192,1.915,20.9,20.9,0,0,1-5.533.705H14.629A20.9,20.9,0,0,1,9.1,49.349,13.286,13.286,0,0,1,4.9,47.434a7.191,7.191,0,0,1-2.441-2.818A5.156,5.156,0,0,1,2.155,41.2L10.319,7.669a6.577,6.577,0,0,1,1.8-3.01,13.077,13.077,0,0,1,3.476-2.434A20.73,20.73,0,0,1,20.248.6,24.4,24.4,0,0,1,25.609,0Z" transform="translate(30.645 241.549)" fill="#fb0050"/>
  </g>
</svg>
